<svg width="15" height="12" viewBox="0 0 15 12" fill="none" xmlns="http://www.w3.org/2000/svg">
<path d="M13.5925 0.183291C13.6998 0.259046 13.7911 0.355201 13.8613 0.466263C13.9314 0.577325 13.979 0.701119 14.0013 0.830571C14.0236 0.960024 14.0201 1.0926 13.9912 1.22072C13.9622 1.34885 13.9083 1.47001 13.8325 1.57729L8.16648 9.59729C7.80648 10.1053 7.50148 10.5373 7.22648 10.8663C6.93948 11.2063 6.61648 11.5243 6.18848 11.7263C5.55422 12.0273 4.8307 12.0819 4.15848 11.8793C3.70248 11.7423 3.33848 11.4733 3.00948 11.1773C2.69448 10.8923 2.33748 10.5093 1.91948 10.0613L0.284481 8.30829C0.191406 8.21296 0.11832 8.09999 0.0695134 7.97602C0.0207072 7.85205 -0.00283436 7.71958 0.000271829 7.58638C0.00337802 7.45319 0.0330691 7.32196 0.0876012 7.2004C0.142133 7.07884 0.220407 6.9694 0.317824 6.87851C0.415242 6.78762 0.529839 6.71712 0.654885 6.67114C0.779931 6.62516 0.912905 6.60463 1.046 6.61076C1.17909 6.61688 1.30961 6.64955 1.4299 6.70682C1.55019 6.7641 1.65783 6.84484 1.74648 6.94429L3.35248 8.66629C3.80748 9.15329 4.10648 9.47229 4.35048 9.69329C4.59048 9.90929 4.69448 9.95229 4.73548 9.96429C4.93148 10.0243 5.14048 10.0093 5.33348 9.91829C5.37948 9.89629 5.48248 9.83329 5.69348 9.58029C5.90948 9.32329 6.16648 8.96029 6.55648 8.40929L12.1985 0.423291C12.2742 0.315979 12.3704 0.224644 12.4815 0.154502C12.5925 0.08436 12.7163 0.0367865 12.8458 0.0144991C12.9752 -0.00778829 13.1078 -0.00435288 13.2359 0.024609C13.364 0.0535709 13.4852 0.107492 13.5925 0.183291Z" fill="#E7DBDB"/>
</svg>
